<?xml version="1.0" encoding="UTF-8" standalone="no"?>
<!-- Created with Inkscape (http://www.inkscape.org/) -->

<svg
   version="1.1"
   id="svg1"
   width="1024"
   height="1024"
   viewBox="0 0 1024 1024"
   sodipodi:docname="cart.svg"
   inkscape:version="1.4.2 (f4327f4, 2025-05-13)"
   xmlns:inkscape="http://www.inkscape.org/namespaces/inkscape"
   xmlns:sodipodi="http://sodipodi.sourceforge.net/DTD/sodipodi-0.dtd"
   xmlns="http://www.w3.org/2000/svg"
   xmlns:svg="http://www.w3.org/2000/svg">
  <defs
     id="defs1" />
  <sodipodi:namedview
     id="namedview1"
     pagecolor="#ffffff"
     bordercolor="#000000"
     borderopacity="0.25"
     inkscape:showpageshadow="2"
     inkscape:pageopacity="0.0"
     inkscape:pagecheckerboard="0"
     inkscape:deskcolor="#d1d1d1"
     showgrid="false"
     inkscape:zoom="0.79589844"
     inkscape:cx="526.44908"
     inkscape:cy="512"
     inkscape:window-width="1920"
     inkscape:window-height="1017"
     inkscape:window-x="1912"
     inkscape:window-y="-8"
     inkscape:window-maximized="1"
     inkscape:current-layer="g1" />
  <g
     inkscape:groupmode="layer"
     inkscape:label="Image"
     id="g1">
    <path
       style="fill:#10c157;fill-opacity:1"
       d="m 404.1126,756.68379 c -14.61471,-4.98152 -24.34406,-15.56736 -28.43642,-30.93972 -3.63443,-13.65216 0.3637,-28.34811 10.67982,-39.25588 20.29857,-21.46275 58.07808,-16.18558 70.9233,9.90681 9.91465,20.13954 3.73463,43.30391 -14.83448,55.60357 -10.62873,7.04018 -25.93473,8.91098 -38.33222,4.68522 z m 220.14379,0.95618 c -12.07005,-3.28586 -22.61365,-12.04716 -28.23198,-23.45961 -3.09978,-6.29655 -3.26656,-7.2057 -3.23957,-17.65933 0.0235,-9.10951 0.42636,-12.01869 2.32263,-16.77311 6.02691,-15.111 20.04596,-25.10855 37.04675,-26.41956 28.75435,-2.21738 50.61357,20.71891 46.85544,49.16414 -2.2228,16.82433 -15.85267,31.52497 -32.86505,35.44696 -5.86797,1.35278 -16.34549,1.20942 -21.88822,-0.29949 z m -216,-96.35501 c -1.375,-0.24347 -5.875,-2.04712 -10,-4.0081 -14.1499,-6.7267 -25.14481,-21.03599 -28.56642,-37.17764 -3.22543,-15.2162 -1.33688,-27.61604 7.62313,-50.05184 l 5.07756,-12.71415 -9.49238,-30.91661 C 362.67554,493.12119 337.33173,409.87844 323.60168,364.5 c -13.24189,-43.76506 -13.97534,-45.79813 -18.2911,-50.70109 -2.10725,-2.39397 -6.01901,-5.3606 -8.69278,-6.59252 -2.67378,-1.23191 -17.26843,-5.79218 -32.43257,-10.13393 -15.16413,-4.34174 -29.68984,-8.88998 -32.27934,-10.10719 -14.2782,-6.71155 -16.3949,-24.07953 -4.23575,-34.7554 4.48094,-3.93432 8.96173,-5.16889 15.17793,-4.18191 7.46703,1.18558 74.11389,18.50169 80.64753,20.95375 17.00371,6.38146 22.67342,14.49139 32.3397,46.25861 l 3.87669,12.74031 199.0222,0.25969 199.0222,0.25968 6.24747,2.88543 c 7.78015,3.5933 13.28686,9.43296 16.21537,17.19576 4.18317,11.08859 4.03753,11.75039 -22.75874,103.41881 -13.2639,45.375 -25.02262,85.11918 -26.1305,88.32039 -6.08037,17.56927 -23.00499,33.7686 -41.72138,39.93344 -4.31872,1.42251 -11.37229,3.07233 -15.67458,3.66627 C 668.68199,584.64516 625.6014,585 542.82534,585 H 419.53901 l -3.14131,7.9494 c -1.72772,4.37217 -3.14131,8.88663 -3.14131,10.03212 0,3.26034 2.4832,8.27944 5.4514,11.01848 l 2.70916,2.5 127.66972,0.5 c 120.25647,0.47097 127.90198,0.6047 131.66972,2.30305 8.56669,3.86154 13.4401,11.29624 13.47803,20.56162 0.0391,9.55239 -6.74142,18.4863 -16.05847,21.1584 -3.34451,0.95919 -264.55032,1.21263 -269.91956,0.26189 z m 266.5,-125.08431 c 6.23111,-2.8655 11.97919,-8.32718 14.9453,-14.20065 1.24988,-2.475 10.4718,-32.4 20.49316,-66.5 10.02137,-34.1 19.49413,-66.18326 21.0506,-71.29614 l 2.82994,-9.29614 -179.97734,0.14817 c -134.98377,0.11112 -179.8685,0.43515 -179.54196,1.29614 0.23946,0.63138 10.65079,34.44797 23.13628,75.14797 12.48549,40.7 23.66287,77.05055 24.83862,80.77899 l 2.13773,6.77899 122.54383,-0.27899 L 669.75639,538.5 Z"
       id="path1" />
  </g>
</svg>
