<?xml version="1.0" encoding="UTF-8" standalone="no"?>
<!-- Created with Inkscape (http://www.inkscape.org/) -->

<svg
   width="1242"
   height="2688"
   viewBox="0 0 328.61249 711.19999"
   version="1.1"
   id="svg1"
   xml:space="preserve"
   inkscape:version="1.4.2 (f4327f4, 2025-05-13)"
   sodipodi:docname="splash-ios.svg"
   xmlns:inkscape="http://www.inkscape.org/namespaces/inkscape"
   xmlns:sodipodi="http://sodipodi.sourceforge.net/DTD/sodipodi-0.dtd"
   xmlns="http://www.w3.org/2000/svg"
   xmlns:svg="http://www.w3.org/2000/svg"><sodipodi:namedview
     id="namedview1"
     pagecolor="#ffffff"
     bordercolor="#000000"
     borderopacity="0.25"
     inkscape:showpageshadow="2"
     inkscape:pageopacity="0.0"
     inkscape:pagecheckerboard="0"
     inkscape:deskcolor="#d1d1d1"
     inkscape:document-units="px"
     inkscape:zoom="0.5"
     inkscape:cx="597"
     inkscape:cy="1201"
     inkscape:window-width="1920"
     inkscape:window-height="1017"
     inkscape:window-x="1912"
     inkscape:window-y="-8"
     inkscape:window-maximized="1"
     inkscape:current-layer="layer1" /><defs
     id="defs1" /><g
     inkscape:label="Livello 1"
     inkscape:groupmode="layer"
     id="layer1"><path
       style="fill:#10c157;fill-opacity:1;stroke-width:0.244595"
       d="m 140.61338,417.57345 c -3.57469,-1.21846 -5.95444,-3.80771 -6.95542,-7.56771 -0.88897,-3.33926 0.0889,-6.93382 2.61224,-9.60182 4.96493,-5.24968 14.20563,-3.95891 17.34751,2.42317 2.42507,4.92604 0.91347,10.59192 -3.62844,13.60037 -2.59974,1.72198 -6.34352,2.17959 -9.37589,1.14599 z m 53.84616,0.23387 c -2.95229,-0.80371 -5.5312,-2.94669 -6.90541,-5.73811 -0.7582,-1.54012 -0.79899,-1.76248 -0.79239,-4.31939 0.006,-2.22814 0.10429,-2.93971 0.5681,-4.10262 1.47415,-3.69609 4.90316,-6.14144 9.06146,-6.46211 7.03317,-0.54236 12.37985,5.06775 11.46063,12.02532 -0.54369,4.11516 -3.87749,7.71086 -8.03864,8.67017 -1.43528,0.33087 -3.99803,0.29581 -5.35375,-0.0732 z m -52.8326,-23.56799 c -0.33633,-0.0595 -1.437,-0.50071 -2.44596,-0.98037 -3.461,-1.64531 -6.15031,-5.1453 -6.98722,-9.09347 -0.78892,-3.72181 -0.32699,-6.75476 1.86459,-12.24244 l 1.24195,-3.10983 -2.3218,-7.56206 c -2.50044,-8.14391 -8.69941,-28.5047 -12.05772,-39.60406 -3.2389,-10.70473 -3.4183,-11.20201 -4.47392,-12.40125 -0.51542,-0.58555 -1.47222,-1.31117 -2.12622,-1.6125 -0.65398,-0.30132 -4.22378,-1.41673 -7.93285,-2.47871 -3.70908,-1.06197 -7.261998,-2.17445 -7.895378,-2.47217 -3.49238,-1.64162 -4.01012,-5.88975 -1.03604,-8.50101 1.09601,-0.96232 2.192,-1.26428 3.712448,-1.02288 1.8264,0.28999 18.12792,4.52543 19.72601,5.12519 4.15903,1.56087 5.54582,3.54453 7.91015,11.31464 l 0.94821,3.11623 48.67991,0.0635 48.6799,0.0635 1.52812,0.70575 c 1.90299,0.87892 3.2499,2.30728 3.9662,4.20602 1.02318,2.71221 0.98757,2.87408 -5.56668,25.29575 -3.24429,11.09852 -6.12042,20.81976 -6.3914,21.60277 -1.48723,4.29736 -5.62691,8.25963 -10.20486,9.76752 -1.05634,0.34794 -2.7816,0.75149 -3.83393,0.89677 -1.28462,0.17735 -11.82194,0.26413 -32.06857,0.26413 h -30.15527 l -0.76835,1.94438 c -0.42259,1.06942 -0.76835,2.17363 -0.76835,2.45382 0,0.79746 0.60738,2.0251 1.33338,2.69506 l 0.66265,0.6115 31.22743,0.12229 c 29.41417,0.1152 31.28423,0.1479 32.2058,0.56333 2.09538,0.94449 3.28739,2.763 3.29667,5.02926 0.01,2.33647 -1.64892,4.52166 -3.92784,5.17525 -0.81805,0.23461 -64.70777,0.2966 -66.02106,0.0641 z m 65.18464,-30.59504 c 1.52412,-0.70089 2.93007,-2.03679 3.65557,-3.47341 0.30572,-0.60537 2.56136,-7.92489 5.01253,-16.2656 2.45118,-8.3407 4.76817,-16.18812 5.14888,-17.4387 l 0.69219,-2.2738 -44.02162,0.0362 c -33.01641,0.0272 -43.99501,0.10644 -43.91513,0.31703 0.0586,0.15443 2.60513,8.42582 5.65902,18.38086 3.0539,9.95503 5.78783,18.8462 6.07542,19.75816 l 0.52288,1.65812 29.97365,-0.0682 29.97365,-0.0682 z"
       id="path1" /></g></svg>
